<?xml version="1.0" encoding="utf-8"?>
<!-- Generator: Adobe Illustrator 16.0.0, SVG Export Plug-In . SVG Version: 6.00 Build 0)  -->
<!DOCTYPE svg PUBLIC "-//W3C//DTD SVG 1.1//EN" "http://www.w3.org/Graphics/SVG/1.1/DTD/svg11.dtd">
<svg version="1.1" id="Layer_1" xmlns="http://www.w3.org/2000/svg" xmlns:xlink="http://www.w3.org/1999/xlink" x="0px" y="0px"
	 width="100px" height="100px" viewBox="0 0 100 100" enable-background="new 0 0 100 100" xml:space="preserve" fill="#ffffff">
<g>
	<g>
		<path d="M50,76.22c-13.51,0-24.5-10.991-24.5-24.5c0-13.509,10.99-24.5,24.5-24.5s24.5,10.991,24.5,24.5
			C74.5,65.229,63.51,76.22,50,76.22z M50,29.22c-12.406,0-22.5,10.093-22.5,22.5s10.094,22.5,22.5,22.5s22.5-10.093,22.5-22.5
			S62.406,29.22,50,29.22z"/>
	</g>
	<path d="M64.174,50.72H51V37.546c0-0.552-0.447-1-1-1s-1,0.448-1,1V50.72H35.826c-0.552,0-1,0.448-1,1s0.448,1,1,1H49v13.173
		c0,0.552,0.447,1,1,1s1-0.448,1-1V52.72h13.174c0.552,0,1-0.448,1-1S64.726,50.72,64.174,50.72z"/>
</g>
</svg>
