<?xml version="1.0" encoding="utf-8"?>
<!-- Generator: Adobe Illustrator 16.0.4, SVG Export Plug-In . SVG Version: 6.00 Build 0)  -->
<!DOCTYPE svg PUBLIC "-//W3C//DTD SVG 1.1//EN" "http://www.w3.org/Graphics/SVG/1.1/DTD/svg11.dtd">
<svg version="1.1" id="Layer_1" xmlns="http://www.w3.org/2000/svg" xmlns:xlink="http://www.w3.org/1999/xlink" x="0px" y="0px"
	 width="110.805px" height="112px" viewBox="0 0 110.805 112" enable-background="new 0 0 110.805 112" xml:space="preserve">
<path d="M60.666,100.334C60.666,106.777,55.443,112,49,112c-6.443,0-11.667-5.223-11.667-11.666S42.557,88.666,49,88.666
	C55.443,88.666,60.666,93.891,60.666,100.334z M81.666,88.666C75.223,88.666,70,93.891,70,100.334S75.223,112,81.666,112
	c6.442,0,11.668-5.223,11.668-11.666S88.109,88.666,81.666,88.666z M107.539,48.216l-4.472-1.339l0.958,0.287l-9.947,33.17H36.553
	L17.886,5.667H0v-2h19.446L28.781,41H99.96l1.102-3.667h9.743L107.539,48.216z M102.11,46.589l-3.513-1.052L99.359,43H29.28
	l8.833,35.334h54.477L102.11,46.589z M74.666,28l19.102-14.005L74.666,0v13h-28v2h28V28z"/>
</svg>
