<?xml version="1.0" encoding="utf-8"?>
<!-- Generator: Adobe Illustrator 16.0.0, SVG Export Plug-In . SVG Version: 6.00 Build 0)  -->
<!DOCTYPE svg PUBLIC "-//W3C//DTD SVG 1.1//EN" "http://www.w3.org/Graphics/SVG/1.1/DTD/svg11.dtd">
<svg version="1.1" id="Layer_1" xmlns="http://www.w3.org/2000/svg" xmlns:xlink="http://www.w3.org/1999/xlink" x="0px" y="0px"
	 width="100px" height="100px" viewBox="0 0 100 100" enable-background="new 0 0 100 100" xml:space="preserve" fill="#ffffff">
<g>
	<path d="M50.057,27.067c-13.445,0-24.385,10.938-24.385,24.384s10.939,24.384,24.385,24.384s24.383-10.938,24.383-24.384
		S63.502,27.067,50.057,27.067z M50.057,73.513c-12.165,0-22.062-9.897-22.062-22.062S37.892,29.39,50.057,29.39
		c12.164,0,22.061,9.897,22.061,22.062S62.221,73.513,50.057,73.513z"/>
	<g>
		<path d="M61.968,52.451H37.301c-0.553,0-1-0.448-1-1s0.447-1,1-1h24.667c0.552,0,1,0.448,1,1S62.52,52.451,61.968,52.451z"/>
	</g>
</g>
</svg>
