<?xml version="1.0" encoding="utf-8"?>
<!-- Generator: Adobe Illustrator 16.0.4, SVG Export Plug-In . SVG Version: 6.00 Build 0)  -->
<!DOCTYPE svg PUBLIC "-//W3C//DTD SVG 1.1//EN" "http://www.w3.org/Graphics/SVG/1.1/DTD/svg11.dtd">
<svg version="1.1" id="Layer_1" xmlns="http://www.w3.org/2000/svg" xmlns:xlink="http://www.w3.org/1999/xlink" x="0px" y="0px"
	 width="112px" height="112px" viewBox="0 0 112 112" enable-background="new 0 0 112 112" xml:space="preserve">
<path d="M112,56L97.016,45.01l7.48-17.01l-18.471-2.025L84,7.504l-17.01,7.485L56,0L45.01,14.985L28,7.504l-2.025,18.471L7.504,28
	l7.484,17.01L0,56l14.984,10.99L7.504,84l18.471,2.025L28,104.496l17.01-7.485L56,112l10.99-14.984l17.01,7.48l2.025-18.471
	L104.496,84l-7.484-17.01L112,56z M37.66,70L27.323,49.826l-0.099,0.037V70h-3.892V42h3.892l10.338,20.174l0.098-0.037V42h3.892v28
	H37.66z M61.124,70H46.457V42h14.551v3.752H50.354v7.905h9.133v3.752h-9.133v8.866h10.771L61.124,70L61.124,70z M84.709,70h-3.541
	l-4.662-19.922h-0.099L71.73,70h-3.556l-5.53-28h4.088l3.463,20.174h0.099L74.729,42h3.43l4.471,20.193h0.1L86.156,42h4.102
	L84.709,70z"/>
</svg>
