<svg xmlns="http://www.w3.org/2000/svg" xmlns:xlink="http://www.w3.org/1999/xlink" version="1.1" id="Capa_1" x="0px" y="0px" width="16px" height="16px" viewBox="0 0 16 16" enable-background="new 0 0 16 16" xml:space="preserve" class="tw"><style>.tw{fill:grey;}.tw:hover{transition:fill 0.3s;fill:#4099ff;}</style><path d="M8 0C3.582 0 0 3.6 0 8s3.582 8 8 8s8-3.582 8-8C16 3.6 12.4 0 8 0z M11.98 6.204l0.006 0.3 c0 2.604-1.981 5.604-5.604 5.604c-1.112 0-2.147-0.326-3.019-0.885c0.154 0 0.3 0 0.5 0 c0.923 0 1.772-0.315 2.446-0.843c-0.862-0.016-1.589-0.586-1.84-1.368C4.56 9 4.7 9 4.8 9 c0.18 0 0.354-0.023 0.519-0.068c-0.901-0.182-1.58-0.977-1.58-1.931V7.005c0.266 0.1 0.6 0.2 0.9 0.2 C4.113 6.9 3.8 6.3 3.8 5.613c0-0.361 0.097-0.699 0.266-0.99c0.971 1.2 2.4 2 4.1 2.1 C8.057 6.5 8 6.4 8 6.232c0-1.087 0.882-1.969 1.97-1.969c0.566 0 1.1 0.2 1.4 0.6 c0.448-0.089 0.87-0.253 1.251-0.478c-0.147 0.46-0.459 0.846-0.866 1.09c0.397-0.047 0.778-0.154 1.131-0.31 C12.7 5.6 12.4 5.9 12 6.204z"/>
</svg>
